<?xml version="1.0" standalone="no"?>
<!DOCTYPE svg PUBLIC "-//W3C//DTD SVG 20010904//EN"
 "http://www.w3.org/TR/2001/REC-SVG-20010904/DTD/svg10.dtd">
<svg version="1.0" xmlns="http://www.w3.org/2000/svg"
 width="729.000000pt" height="729.000000pt" viewBox="0 0 729.000000 729.000000"
 preserveAspectRatio="xMidYMid meet">
<metadata>
Created by potrace 1.11, written by Peter Selinger 2001-2013
</metadata>
<g transform="translate(0.000000,729.000000) scale(0.100000,-0.100000)"
fill="#000000" stroke="none">
<path d="M4430 5609 c-393 -23 -770 -171 -1104 -433 -72 -57 -74 -60 -59 -82
l15 -23 76 60 c321 256 677 394 1075 419 563 34 1066 -148 1461 -530 345 -334
538 -746 578 -1232 38 -473 -107 -953 -404 -1331 -58 -74 -67 -90 -58 -107 6
-11 14 -20 18 -20 14 0 117 132 185 236 155 236 252 490 303 789 23 135 23
431 0 575 -103 655 -507 1205 -1092 1487 -221 106 -477 177 -685 188 -52 3
-114 7 -139 8 -25 2 -101 0 -170 -4z"/>
<path d="M3011 4855 c-33 -41 -64 -81 -68 -89 -6 -10 -55 -15 -208 -19 -121
-4 -226 -12 -266 -21 -444 -101 -766 -431 -861 -881 -17 -81 -16 -313 1 -400
46 -229 150 -426 312 -588 128 -126 282 -218 459 -270 123 -37 208 -47 392
-47 l164 0 18 -31 c32 -55 160 -202 257 -294 173 -167 415 -321 649 -413 93
-37 283 -86 415 -108 137 -23 443 -23 580 0 132 22 322 71 415 108 145 57 345
168 461 254 63 47 116 88 118 90 3 3 -4 13 -15 23 -19 19 -21 18 -124 -60
-239 -179 -509 -295 -820 -350 -164 -30 -486 -30 -650 0 -474 84 -886 328
-1176 695 l-64 81 882 6 c624 4 897 9 932 17 345 83 611 288 761 587 128 257
156 536 79 801 -100 346 -364 626 -699 741 -171 59 -126 56 -1078 60 l-878 4
48 62 c27 34 53 68 57 75 8 13 -9 42 -25 42 -5 0 -36 -34 -68 -75z m1676 -296
c190 -25 382 -119 519 -254 121 -120 189 -229 237 -380 102 -323 25 -664 -203
-908 -120 -128 -276 -222 -446 -269 -113 -31 -345 -31 -458 0 -518 142 -809
669 -649 1177 48 151 116 260 237 380 201 197 485 292 763 254z"/>
</g>
</svg>
